<?xml version="1.0" encoding="UTF-8" standalone="no"?>
<!-- Created with Inkscape (http://www.inkscape.org/) -->
<svg
   xmlns:svg="http://www.w3.org/2000/svg"
   xmlns="http://www.w3.org/2000/svg"
   version="1.0"
   width="351"
   height="270"
   id="svg2">
  <defs
     id="defs4" />
  <path
     d="M 0.28125,0.3125 L 0.28125,269.71875 L 55.1875,269.71875 L 55.1875,226.21875 L 294.8125,226.21875 L 294.8125,269.71875 L 349.71875,269.71875 L 349.71875,0.3125 L 294.8125,0.3125 L 294.8125,43.8125 L 55.1875,43.8125 L 55.1875,0.3125 L 0.28125,0.3125 z M 23.3125,32.75 L 44.875,32.75 C 47.676293,32.75 49.9375,35.011207 49.9375,37.8125 L 49.9375,47.6875 C 49.937502,50.488793 47.676293,52.75 44.875,52.75 L 23.3125,52.75 C 20.511207,52.750002 18.25,50.488793 18.25,47.6875 L 18.25,37.8125 C 18.25,35.011209 20.511207,32.75 23.3125,32.75 z M 304.3125,32.75 L 325.875,32.75 C 328.67631,32.75 330.9375,35.011207 330.9375,37.8125 L 330.9375,47.6875 C 330.93751,50.488793 328.67629,52.75 325.875,52.75 L 304.3125,52.75 C 301.5112,52.750002 299.25,50.488793 299.25,47.6875 L 299.25,37.8125 C 299.25,35.011209 301.51121,32.75 304.3125,32.75 z M 55.21875,46.1875 L 294.8125,46.1875 L 294.8125,223.8125 L 55.21875,223.8125 L 55.21875,46.1875 z M 23.3125,92.75 L 44.875,92.75 C 47.676293,92.75 49.9375,95.011207 49.9375,97.8125 L 49.9375,107.6875 C 49.937502,110.48879 47.676293,112.75 44.875,112.75 L 23.3125,112.75 C 20.511207,112.75 18.25,110.48879 18.25,107.6875 L 18.25,97.8125 C 18.25,95.011205 20.511207,92.75 23.3125,92.75 z M 304.3125,92.75 L 325.875,92.75 C 328.67631,92.75 330.9375,95.011207 330.9375,97.8125 L 330.9375,107.6875 C 330.93751,110.48879 328.67629,112.75 325.875,112.75 L 304.3125,112.75 C 301.5112,112.75 299.25,110.48879 299.25,107.6875 L 299.25,97.8125 C 299.25,95.011205 301.51121,92.75 304.3125,92.75 z M 23.3125,151.75 L 44.875,151.75 C 47.676293,151.75 49.9375,154.01121 49.9375,156.8125 L 49.9375,166.6875 C 49.937502,169.48879 47.676293,171.75 44.875,171.75 L 23.3125,171.75 C 20.511207,171.75001 18.25,169.48879 18.25,166.6875 L 18.25,156.8125 C 18.25,154.0112 20.511207,151.75 23.3125,151.75 z M 304.3125,151.75 L 325.875,151.75 C 328.67631,151.75 330.9375,154.01121 330.9375,156.8125 L 330.9375,166.6875 C 330.93751,169.48879 328.67629,171.75 325.875,171.75 L 304.3125,171.75 C 301.5112,171.75001 299.25,169.48879 299.25,166.6875 L 299.25,156.8125 C 299.25,154.0112 301.51121,151.75 304.3125,151.75 z M 23.3125,215.75 L 44.875,215.75 C 47.676293,215.75 49.9375,218.01121 49.9375,220.8125 L 49.9375,230.6875 C 49.937502,233.48879 47.676293,235.75 44.875,235.75 L 23.3125,235.75 C 20.511207,235.75001 18.25,233.48879 18.25,230.6875 L 18.25,220.8125 C 18.25,218.0112 20.511207,215.75 23.3125,215.75 z M 304.3125,215.75 L 325.875,215.75 C 328.67631,215.75 330.9375,218.01121 330.9375,220.8125 L 330.9375,230.6875 C 330.93751,233.48879 328.67629,235.75 325.875,235.75 L 304.3125,235.75 C 301.5112,235.75001 299.25,233.48879 299.25,230.6875 L 299.25,220.8125 C 299.25,218.0112 301.51121,215.75 304.3125,215.75 z "
     style="fill:black;fill-opacity:1;stroke:black;stroke-width:0.59177601;stroke-miterlimit:4;stroke-dashoffset:0;stroke-opacity:1"
     id="rect2833" />
</svg>
